<svg
  xmlns="http://www.w3.org/2000/svg"
  width="480"
  height="480"
  viewBox="0 0 480 480"
>
  <path
    fill="#2c65cf"
    fill-rule="evenodd"
    d="M312.971 60.001c54.859 0 80.002 25.142 80.002 79.999h-.002v200h.002c0 54.857-25.141 80-80 80H166.971c-54.858-.001-79.998-25.144-79.998-80h-.002V140h.002c0-54.856 25.14-80 79.998-80zM181.252 295a5 5 0 0 0-5 5v40a5 5 0 0 0 5 5h40a5 5 0 0 0 5-5v-40a5 5 0 0 0-5-5zm80 0a5 5 0 0 0-5 5v40a5 5 0 0 0 5 5h40a5 5 0 0 0 5-5v-40a5 5 0 0 0-5-5zm-80-80a5 5 0 0 0-5 5v40a5 5 0 0 0 5 5h40a5 5 0 0 0 5-5v-40a5 5 0 0 0-5-5zm80 0a5 5 0 0 0-5 5v40a5 5 0 0 0 5 5h40a5 5 0 0 0 5-5v-40a5 5 0 0 0-5-5zm-81.25-80a5 5 0 0 0-5 5v40a5 5 0 0 0 5 5h120a5 5 0 0 0 5-5v-40a5 5 0 0 0-5-5z"
    clip-rule="evenodd"
  />
</svg>
